<svg width="88" height="19" viewBox="0 0 88 19" fill="none" xmlns="http://www.w3.org/2000/svg">
<path d="M18.048 8.976V10.272C18.048 12.672 17.28 14.616 15.744 16.104C14.208 17.592 12.224 18.336 9.792 18.336C7.2 18.336 5.048 17.496 3.336 15.816C1.64 14.12 0.792 12.056 0.792 9.624C0.792 7.176 1.632 5.104 3.312 3.408C5.008 1.712 7.104 0.863999 9.6 0.863999C11.168 0.863999 12.6 1.224 13.896 1.944C15.192 2.648 16.2 3.592 16.92 4.776L14.088 6.408C13.688 5.72 13.08 5.16 12.264 4.728C11.464 4.296 10.568 4.08 9.576 4.08C7.976 4.08 6.656 4.608 5.616 5.664C4.592 6.704 4.08 8.024 4.08 9.624C4.08 11.208 4.6 12.52 5.64 13.56C6.696 14.584 8.088 15.096 9.816 15.096C11.096 15.096 12.152 14.816 12.984 14.256C13.832 13.68 14.408 12.896 14.712 11.904H9.624V8.976H18.048ZM23.3558 8.064C23.6438 7.296 24.1158 6.72 24.7718 6.336C25.4438 5.952 26.1878 5.76 27.0038 5.76V9.216C26.0598 9.104 25.2118 9.296 24.4598 9.792C23.7238 10.288 23.3558 11.112 23.3558 12.264V18H20.2598V6H23.3558V8.064ZM38.5931 16.512C37.3611 17.728 35.8571 18.336 34.0811 18.336C32.3051 18.336 30.8011 17.728 29.5691 16.512C28.3531 15.28 27.7451 13.776 27.7451 12C27.7451 10.224 28.3531 8.728 29.5691 7.512C30.8011 6.28 32.3051 5.664 34.0811 5.664C35.8571 5.664 37.3611 6.28 38.5931 7.512C39.8251 8.728 40.4411 10.224 40.4411 12C40.4411 13.776 39.8251 15.28 38.5931 16.512ZM31.7531 14.376C32.3771 15 33.1531 15.312 34.0811 15.312C35.0091 15.312 35.7851 15 36.4091 14.376C37.0331 13.752 37.3451 12.96 37.3451 12C37.3451 11.04 37.0331 10.248 36.4091 9.624C35.7851 9 35.0091 8.688 34.0811 8.688C33.1531 8.688 32.3771 9 31.7531 9.624C31.1451 10.248 30.8411 11.04 30.8411 12C30.8411 12.96 31.1451 13.752 31.7531 14.376ZM55.6624 6H58.9504L55.1344 18H52.1824L49.9744 10.728L47.7664 18H44.8144L40.9984 6H44.2864L46.3264 13.368L48.5104 6H51.4384L53.6224 13.392L55.6624 6Z" fill="black"/>
<path d="M70.9151 9.288C72.3871 10.136 73.1231 11.416 73.1231 13.128C73.1231 14.552 72.6191 15.72 71.6111 16.632C70.6031 17.544 69.3631 18 67.8911 18H60.7631V1.2H67.3871C68.8271 1.2 70.0351 1.648 71.0111 2.544C72.0031 3.424 72.4991 4.552 72.4991 5.928C72.4991 7.32 71.9711 8.44 70.9151 9.288ZM67.3871 4.296H64.0751V7.992H67.3871C67.8991 7.992 68.3231 7.816 68.6591 7.464C69.0111 7.112 69.1871 6.672 69.1871 6.144C69.1871 5.616 69.0191 5.176 68.6831 4.824C68.3471 4.472 67.9151 4.296 67.3871 4.296ZM67.8911 14.904C68.4511 14.904 68.9151 14.72 69.2831 14.352C69.6511 13.968 69.8351 13.488 69.8351 12.912C69.8351 12.352 69.6511 11.888 69.2831 11.52C68.9151 11.136 68.4511 10.944 67.8911 10.944H64.0751V14.904H67.8911ZM77.9539 13.272C78.3699 14.776 79.4979 15.528 81.3379 15.528C82.5219 15.528 83.4179 15.128 84.0259 14.328L86.5219 15.768C85.3379 17.48 83.5939 18.336 81.2899 18.336C79.3059 18.336 77.7139 17.736 76.5139 16.536C75.3139 15.336 74.7139 13.824 74.7139 12C74.7139 10.192 75.3059 8.688 76.4899 7.488C77.6739 6.272 79.1939 5.664 81.0499 5.664C82.8099 5.664 84.2579 6.272 85.3939 7.488C86.5459 8.704 87.1219 10.208 87.1219 12C87.1219 12.4 87.0819 12.824 87.0019 13.272H77.9539ZM77.9059 10.872H84.0259C83.8499 10.056 83.4819 9.448 82.9219 9.048C82.3779 8.648 81.7539 8.448 81.0499 8.448C80.2179 8.448 79.5299 8.664 78.9859 9.096C78.4419 9.512 78.0819 10.104 77.9059 10.872Z" fill="#F25822"/>
</svg>
